<?xml version="1.0" encoding="UTF-8" standalone="no"?>
<!-- Created with Inkscape (http://www.inkscape.org/) -->

<svg
   xmlns:dc="http://purl.org/dc/elements/1.1/"
   xmlns:cc="http://creativecommons.org/ns#"
   xmlns:rdf="http://www.w3.org/1999/02/22-rdf-syntax-ns#"
   xmlns:svg="http://www.w3.org/2000/svg"
   xmlns="http://www.w3.org/2000/svg"
   xmlns:sodipodi="http://sodipodi.sourceforge.net/DTD/sodipodi-0.dtd"
   xmlns:inkscape="http://www.inkscape.org/namespaces/inkscape"
   width="64"
   height="64"
   viewBox="0 0 16.933333 16.933334"
   version="1.1"
   id="svg8"
   inkscape:version="0.92.2 5c3e80d, 2017-08-06"
   sodipodi:docname="logo.svg"
   inkscape:export-filename="/Ember Library/Ember/ember-information-technology-environment/work-docs/publicity/logo.svg.png"
   inkscape:export-xdpi="299.99976"
   inkscape:export-ydpi="299.99976">
  <defs
     id="defs2">
    <clipPath
       clipPathUnits="userSpaceOnUse"
       id="clipPath4856">
      <path
         sodipodi:nodetypes="zzzzzzzzz"
         inkscape:connector-curvature="0"
         id="path4858"
         d="m 8.4666667,280.06665 c -0.5291666,0 -0.5291666,4.7625 -2.1166666,6.35 C 4.7625,288.00415 0,288.00415 0,288.53332 c 0,0.52917 4.7625,0.52916 6.3500001,2.11666 1.5875,1.5875 1.5875,6.35 2.1166666,6.35 0.5291667,0 0.5291667,-4.7625 2.1166663,-6.35 1.5875,-1.5875 6.35,-1.5875 6.35,-2.11666 0,-0.52916 -4.7625,-0.52917 -6.35,-2.11667 -1.5875004,-1.5875 -1.5874996,-6.35 -2.1166663,-6.35 z"
         style="fill:#ffcc00;fill-opacity:1;fill-rule:evenodd;stroke:#dee1c9;stroke-width:0.26458332px;stroke-linecap:butt;stroke-linejoin:miter;stroke-opacity:1" />
    </clipPath>
    <clipPath
       clipPathUnits="userSpaceOnUse"
       id="clipPath4915">
      <rect
         style="color:#31363b;clip-rule:nonzero;display:inline;overflow:visible;visibility:visible;opacity:1;isolation:auto;mix-blend-mode:normal;color-interpolation:sRGB;color-interpolation-filters:linearRGB;solid-color:#000000;solid-opacity:1;fill:#ff00c3;fill-opacity:0.42542156;fill-rule:nonzero;stroke:none;stroke-width:0.60514849;stroke-linecap:butt;stroke-linejoin:miter;stroke-miterlimit:4;stroke-dasharray:none;stroke-dashoffset:0;stroke-opacity:1;color-rendering:auto;image-rendering:auto;shape-rendering:auto;text-rendering:auto;enable-background:accumulate"
         id="rect4917"
         width="8.4666672"
         height="8.4666805"
         x="1.6653345e-16"
         y="280.06665" />
    </clipPath>
    <clipPath
       clipPathUnits="userSpaceOnUse"
       id="clipPath4931">
      <path
         sodipodi:nodetypes="czczczczc"
         inkscape:connector-curvature="0"
         id="path4933"
         d="m 8.4666667,280.06665 c 0,0.52917 -0.5291666,4.7625 -2.1166666,6.35 C 4.7625,288.00415 0.52916667,288.53332 0,288.53332 c 0.52916667,0 4.7625,0.52916 6.3500001,2.11666 1.5875,1.5875 2.1166666,5.82084 2.1166666,6.35 0,-0.52916 0.5291667,-4.7625 2.1166663,-6.35 1.5875,-1.5875 5.820834,-2.11666 6.35,-2.11666 -0.529166,0 -4.7625,-0.52917 -6.35,-2.11667 -1.5875004,-1.5875 -2.1166663,-5.82083 -2.1166663,-6.35 z"
         style="display:inline;fill:#00f30f;fill-opacity:1;fill-rule:evenodd;stroke:none;stroke-width:0.26458332px;stroke-linecap:butt;stroke-linejoin:miter;stroke-opacity:1" />
    </clipPath>
  </defs>
  <sodipodi:namedview
     id="base"
     pagecolor="#ffffff"
     bordercolor="#666666"
     borderopacity="1.0"
     inkscape:pageopacity="0.0"
     inkscape:pageshadow="2"
     inkscape:zoom="22.625"
     inkscape:cx="8.8571193"
     inkscape:cy="30.957803"
     inkscape:document-units="px"
     inkscape:current-layer="layer1"
     showgrid="true"
     inkscape:window-width="3840"
     inkscape:window-height="1978"
     inkscape:window-x="0"
     inkscape:window-y="118"
     inkscape:window-maximized="1"
     units="px"
     showguides="false">
    <inkscape:grid
       type="xygrid"
       id="grid4798"
       empspacing="4" />
  </sodipodi:namedview>
  <metadata
     id="metadata5">
    <rdf:RDF>
      <cc:Work
         rdf:about="">
        <dc:format>image/svg+xml</dc:format>
        <dc:type
           rdf:resource="http://purl.org/dc/dcmitype/StillImage" />
        <dc:title />
      </cc:Work>
    </rdf:RDF>
  </metadata>
  <g
     inkscape:label="Layer 1"
     inkscape:groupmode="layer"
     id="layer1"
     transform="translate(0,-280.06665)"
     style="display:inline">
    <path
       style="display:inline;fill:#ffcc00;fill-opacity:1;fill-rule:evenodd;stroke:none;stroke-width:0.26458332px;stroke-linecap:butt;stroke-linejoin:miter;stroke-opacity:1"
       d="m 8.4666667,280.06665 c 0,0.52917 -0.5291665,4.7625 -2.1166666,6.35 C 4.7625,288.00415 0.52916667,288.53332 0,288.53332 c 0.52916667,0 4.7625001,0.52916 6.3500001,2.11666 1.5875,1.5875 2.1166666,5.82084 2.1166666,6.35 0,-0.52916 0.5291667,-4.7625 2.1166663,-6.35 1.5875,-1.5875 5.820834,-2.11666 6.35,-2.11666 -0.529166,0 -4.7625,-0.52917 -6.35,-2.11667 -1.5875005,-1.5875 -2.1166663,-5.82083 -2.1166663,-6.35 z"
       id="path4523"
       inkscape:connector-curvature="0"
       sodipodi:nodetypes="czczczczc"
       sodipodi:insensitive="true" />
    <path
       sodipodi:nodetypes="czczczczc"
       inkscape:connector-curvature="0"
       id="path4892"
       d="m 8.4666667,280.06665 c 0,0.52917 -0.5291665,4.7625 -2.1166666,6.35 C 4.7625,288.00415 0.52916667,288.53332 0,288.53332 c 0.52916667,0 4.7625001,0.52916 6.3500001,2.11666 1.5875,1.5875 2.1166666,5.82084 2.1166666,6.35 0,-0.52916 0.5291667,-4.7625 2.1166663,-6.35 1.5875,-1.5875 5.820834,-2.11666 6.35,-2.11666 -0.529166,0 -4.7625,-0.52917 -6.35,-2.11667 -1.5875005,-1.5875 -2.1166663,-5.82083 -2.1166663,-6.35 z"
       style="display:inline;fill:#ffe100;fill-opacity:1;fill-rule:evenodd;stroke:none;stroke-width:0.26458332px;stroke-linecap:butt;stroke-linejoin:miter;stroke-opacity:1"
       clip-path="url(#clipPath4915)"
       sodipodi:insensitive="true" />
    <path
       clip-path="url(#clipPath4915)"
       style="display:inline;fill:#ffe100;fill-opacity:0.59215686;fill-rule:evenodd;stroke:none;stroke-width:0.26458332px;stroke-linecap:butt;stroke-linejoin:miter;stroke-opacity:1"
       d="m 8.4666667,280.06665 c 0,0.52917 -0.5291665,4.7625 -2.1166666,6.35 C 4.7625,288.00415 0.52916667,288.53332 0,288.53332 c 0.52916667,0 4.7625001,0.52916 6.3500001,2.11666 1.5875,1.5875 2.1166666,5.82084 2.1166666,6.35 0,-0.52916 0.5291667,-4.7625 2.1166663,-6.35 1.5875,-1.5875 5.820834,-2.11666 6.35,-2.11666 -0.529166,0 -4.7625,-0.52917 -6.35,-2.11667 -1.5875005,-1.5875 -2.1166663,-5.82083 -2.1166663,-6.35 z"
       id="path4919"
       inkscape:connector-curvature="0"
       sodipodi:nodetypes="czczczczc"
       transform="matrix(-1,0,0,1,16.933334,-8.4453126e-6)"
       sodipodi:insensitive="true" />
    <path
       clip-path="url(#clipPath4915)"
       style="display:inline;fill:#e1c700;fill-opacity:0.37254902;fill-rule:evenodd;stroke:none;stroke-width:0.26458332px;stroke-linecap:butt;stroke-linejoin:miter;stroke-opacity:1"
       d="m 8.4666667,280.06665 c 0,0.52917 -0.5291665,4.7625 -2.1166666,6.35 C 4.7625,288.00415 0.52916667,288.53332 0,288.53332 c 0.52916667,0 4.7625001,0.52916 6.3500001,2.11666 1.5875,1.5875 2.1166666,5.82084 2.1166666,6.35 0,-0.52916 0.5291667,-4.7625 2.1166663,-6.35 1.5875,-1.5875 5.820834,-2.11666 6.35,-2.11666 -0.529166,0 -4.7625,-0.52917 -6.35,-2.11667 -1.5875005,-1.5875 -2.1166663,-5.82083 -2.1166663,-6.35 z"
       id="path4921"
       inkscape:connector-curvature="0"
       sodipodi:nodetypes="czczczczc"
       transform="matrix(1,0,0,-1,-4.2529298e-7,577.06664)"
       sodipodi:insensitive="true" />
    <path
       style="display:inline;fill:none;fill-opacity:1;fill-rule:evenodd;stroke:#1a1a1a;stroke-width:0.52916667;stroke-linecap:butt;stroke-linejoin:miter;stroke-opacity:1;stroke-miterlimit:4;stroke-dasharray:none"
       d="m 8.4666667,280.06665 c 0,0.52917 -0.5291665,4.7625 -2.1166666,6.35 C 4.7625,288.00415 0.52916667,288.53332 0,288.53332 c 0.52916667,0 4.7625001,0.52916 6.3500001,2.11666 1.5875,1.5875 2.1166666,5.82084 2.1166666,6.35 0,-0.52916 0.5291667,-4.7625 2.1166663,-6.35 1.5875,-1.5875 5.820834,-2.11666 6.35,-2.11666 -0.529166,0 -4.7625,-0.52917 -6.35,-2.11667 -1.5875005,-1.5875 -2.1166663,-5.82083 -2.1166663,-6.35 z"
       id="path4925"
       inkscape:connector-curvature="0"
       sodipodi:nodetypes="czczczczc"
       clip-path="url(#clipPath4931)" />
  </g>
</svg>
